<svg width="150" height="150" viewBox="0 0 150 150" fill="none" xmlns="http://www.w3.org/2000/svg">
<circle cx="75" cy="75" r="75" fill="white"/>
<path d="M52.5 55.5C52.5 49.1994 52.5 46.0491 53.7262 43.6426C54.8048 41.5258 56.5258 39.8048 58.6426 38.7262C61.0491 37.5 64.1994 37.5 70.5 37.5H79.5C85.8006 37.5 88.9509 37.5 91.3574 38.7262C93.4742 39.8048 95.1952 41.5258 96.2738 43.6426C97.5 46.0491 97.5 49.1994 97.5 55.5V94.5C97.5 100.801 97.5 103.951 96.2738 106.357C95.1952 108.474 93.4742 110.195 91.3574 111.274C88.9509 112.5 85.8006 112.5 79.5 112.5H70.5C64.1994 112.5 61.0491 112.5 58.6426 111.274C56.5258 110.195 54.8048 108.474 53.7262 106.357C52.5 103.951 52.5 100.801 52.5 94.5V55.5Z" fill="url(#paint0_linear_430_4910)"/>
<path fill-rule="evenodd" clip-rule="evenodd" d="M86.6095 66.7238C87.1302 67.2445 87.1302 68.0887 86.6095 68.6094L71.9428 83.2761C71.4221 83.7968 70.5779 83.7968 70.0572 83.2761L63.3905 76.6094C62.8698 76.0887 62.8698 75.2445 63.3905 74.7238C63.9112 74.2031 64.7554 74.2031 65.2761 74.7238L71 80.4476L84.7239 66.7238C85.2446 66.2031 86.0888 66.2031 86.6095 66.7238Z" fill="white"/>
<defs>
<linearGradient id="paint0_linear_430_4910" x1="52.4993" y1="112.5" x2="118.676" y2="72.7934" gradientUnits="userSpaceOnUse">
<stop stop-color="#0CB47F"/>
<stop offset="1" stop-color="#01E140"/>
</linearGradient>
</defs>
</svg>
