<?xml version="1.0" encoding="UTF-8"?>
<!DOCTYPE svg PUBLIC "-//W3C//DTD SVG 1.1//EN" "http://www.w3.org/Graphics/SVG/1.1/DTD/svg11.dtd">
<!-- Creator: CorelDRAW -->
<svg xmlns="http://www.w3.org/2000/svg" xml:space="preserve" width="3343px" height="1110px" version="1.1" style="shape-rendering:geometricPrecision; text-rendering:geometricPrecision; image-rendering:optimizeQuality; fill-rule:evenodd; clip-rule:evenodd"
viewBox="0 0 3343 1110.4"
 xmlns:xlink="http://www.w3.org/1999/xlink"
 xmlns:xodm="http://www.corel.com/coreldraw/odm/2003">
 <defs>
  <style type="text/css">
   <![CDATA[
    .fil0 {fill:#009D82}
    .fil1 {fill:#009D82;fill-rule:nonzero}
   ]]>
  </style>
 </defs>
 <g id="Слой_x0020_1">
  <metadata id="CorelCorpID_0Corel-Layer"/>
  <g id="_1853027284928">
   <g>
    <path class="fil0" d="M453.64 720.27l0.61 -1.4c-0.04,0.65 -0.06,1.3 -0.11,1.94 -0.15,-0.18 -0.34,-0.36 -0.5,-0.54zm-24.27 -222.93c0.2,0.63 0.4,1.24 0.6,1.87 0.68,2.07 1.33,4.12 1.91,6.19 -123.14,-118.18 -327.29,-228.35 -354.9,-310.29 -2.28,132.66 332.57,285.23 376.85,442.8l0.3 -0.69c0.06,0.92 0.1,1.83 0.15,2.74 -87.98,-94.09 -258.37,-182.57 -280.17,-247.29 -1.69,97.95 244.48,210.51 278.82,326.81 -72.45,-80.36 -219.98,-156.18 -238.56,-211.36 -1.41,81.14 200.14,174.26 232.47,270.52 -12.97,64.4 -39.87,99.62 -74.55,108.51 0,0 184.54,64.81 184.54,-101.31l0 -93.95c0,-100.35 -34.87,-195.3 -88.75,-268.05l0 -0.01c-0.09,-0.12 -0.2,-0.24 -0.27,-0.37 -0.95,-1.29 -1.92,-2.53 -2.87,-3.79 -1.52,-1.99 -3.07,-3.99 -4.63,-5.98 -4.82,-6.1 -9.77,-12.04 -14.85,-17.8 -130.03,-148.4 -405.11,-288.65 -439.38,-390.38 -2.56,147.53 363.61,316.8 423.29,491.83z"/>
    <path class="fil0" d="M556.83 1106.65l0 -422.43c-0.01,259.3 -184.54,202.93 -184.54,202.93l0.45 0.53c-0.46,-0.11 -0.9,-0.13 -1.36,-0.26l0 0.01c0.18,0.86 36.09,164.45 185.43,219.22l0.02 0z"/>
    <path class="fil0" d="M703.25 718.87l0.61 1.4c-0.17,0.18 -0.35,0.36 -0.5,0.54 -0.05,-0.64 -0.07,-1.29 -0.11,-1.94zm-102.58 -26.98l0 93.95c0,166.12 184.53,101.31 184.53,101.31 -34.67,-8.89 -61.58,-44.11 -74.55,-108.51 32.34,-96.26 233.89,-189.38 232.48,-270.52 -18.58,55.18 -166.13,131 -238.57,211.36 34.35,-116.3 280.52,-228.86 278.83,-326.81 -21.8,64.72 -192.2,153.2 -280.18,247.29 0.05,-0.91 0.1,-1.82 0.15,-2.74l0.31 0.69c44.28,-157.57 379.13,-310.14 376.85,-442.8 -27.6,81.94 -231.76,192.11 -354.91,310.29 0.59,-2.07 1.24,-4.12 1.9,-6.19 0.22,-0.63 0.42,-1.24 0.62,-1.87 59.67,-175.03 425.85,-344.3 423.29,-491.83 -34.28,101.73 -309.35,241.98 -439.38,390.38 -5.08,5.76 -10.03,11.7 -14.85,17.8 -1.57,1.99 -3.12,3.99 -4.64,5.98 -0.94,1.26 -1.92,2.5 -2.87,3.79 -0.08,0.13 -0.19,0.25 -0.27,0.37l0 0.01c-53.87,72.75 -88.74,167.7 -88.74,268.05z"/>
    <path class="fil0" d="M600.67 1106.65l0.01 0c149.73,-54.91 185.44,-219.23 185.44,-219.23 -0.46,0.13 -0.91,0.15 -1.36,0.26l0.44 -0.53c0,0 -184.33,56.3 -184.53,-202.53l0 422.03z"/>
   </g>
   <g>
    <g>
     <polygon class="fil1" points="1579.55,439.34 1408.44,173 1486.99,173 1629.49,390.73 1771.98,173 1803.95,173 1646.14,415.37 1646.14,639.09 1579.55,639.09 "/>
     <g>
      <path class="fil1" d="M2068.3 168.34c136.51,0 236.39,101.21 236.39,237.7 0,136.51 -99.88,238.39 -236.39,238.39 -136.49,0 -236.37,-101.88 -236.37,-238.39 0,-136.49 99.88,-237.7 236.37,-237.7zm0 452.11l0 0c96.55,0 167.79,-88.56 167.79,-214.41 0,-125.84 -71.24,-213.73 -167.79,-213.73 -95.87,0 -167.12,87.89 -167.12,213.73 0,125.85 71.25,214.41 167.12,214.41z"/>
      <path class="fil1" d="M2617.64 168.34c136.51,0 236.39,101.21 236.39,237.7 0,136.51 -99.88,238.39 -236.39,238.39 -136.49,0 -236.37,-101.88 -236.37,-238.39 0,-136.49 99.88,-237.7 236.37,-237.7zm0 452.11l0 0c96.56,0 167.8,-88.56 167.8,-214.41 0,-125.84 -71.24,-213.73 -167.8,-213.73 -95.87,0 -167.12,87.89 -167.12,213.73 0,125.85 71.25,214.41 167.12,214.41z"/>
     </g>
     <path class="fil1" d="M3308.82 173l26.63 0 0 289.65c0,108.52 -69.25,181.78 -185.76,181.78 -115.2,0 -200.43,-71.25 -200.43,-181.78l0 -289.65 66.59 0 0 292.97c0,100.54 71.91,152.48 151.14,152.48 74.58,0 141.83,-45.94 141.83,-152.48l0 -292.97z"/>
    </g>
    <path class="fil1" d="M1879.2 937.84c0,0.58 0.39,0.96 0.96,0.96l16.98 0c0.58,0 0.77,-0.38 0.77,-0.96l0 -64.05c0,-0.58 0.58,-1.35 1.16,-0.78 10.23,4.44 20.65,6.95 32.22,6.95 26.24,0 48.23,-14.08 48.23,-40.32 0,-29.33 -27.78,-35.89 -51.7,-35.89l-47.66 0c-0.57,0 -0.77,0.39 -0.77,0.97 0,23.92 -0.19,115.76 -0.19,133.12zm19.29 -69.07c-0.38,-0.19 -0.58,-0.38 -0.58,-0.77l0 -56.34c0,-0.58 0.39,-0.96 0.97,-0.96l25.46 0c23.74,0 35.7,9.84 35.7,29.32 0,20.07 -11.96,34.15 -34.54,34.15 -8.29,0 -17.36,-1.73 -27.01,-5.4zm177.5 -1.16c-1.54,40.71 26.43,71.58 68.88,73.12 42.63,1.55 72.34,-26.62 73.89,-67.52 1.54,-41.1 -26.43,-71.58 -68.69,-73.12 -43.02,-1.55 -72.54,27.39 -74.08,67.52zm68.3 67.72c-35.5,-4.05 -52.67,-41.29 -48.04,-77.75 4.05,-35.11 26.81,-53.63 53.05,-51.13 35.31,3.67 50.94,35.89 47.85,78.33 -2.12,35.12 -26.82,53.64 -52.86,50.55zm161.29 -131.58c-0.78,0 -0.97,0.39 -0.78,1.16 11.77,33.57 43.22,125.02 46.31,133.32 0,0.38 0.19,0.57 0.77,0.57l15.05 0c0.19,0 0.58,-0.19 0.77,-0.57l22.57 -62.9c0.2,-0.77 1.35,-0.77 1.55,0l21.8 62.9c0,0.38 0.19,0.57 0.77,0.57l15.24 0c0.19,0 0.58,-0.19 0.77,-0.57l46.88 -133.32c0.2,-0.77 -0.19,-1.16 -0.77,-1.16l-5.4 0c-0.58,0 -0.77,0.2 -0.77,0.58 -10.03,28.75 -35.69,102.83 -41.1,116.72 -0.19,0.77 -1.35,0.77 -1.54,0 -4.63,-13.7 -28.94,-84.5 -40.51,-116.72 -0.2,-0.38 -0.58,-0.58 -0.97,-0.58l-17.75 0c-0.96,0 -1.16,0.39 -0.96,1.16l19.68 57.11c0.19,0.19 0.19,0.38 0,0.58l-20.65 58.45c-0.19,0.77 -1.35,0.77 -1.54,0l-40.51 -116.72c0,-0.38 -0.2,-0.58 -0.78,-0.58l-18.13 0zm272.03 134.09c0,0.58 0.39,0.96 0.96,0.96l74.86 0c0.58,0 0.96,-0.38 0.96,-0.96l0 -5.21c0,-0.58 -0.38,-0.77 -0.96,-0.77l-56.14 0c-0.58,0 -0.97,-0.39 -0.97,-0.97l0 -57.68c0,-0.58 0.39,-0.77 0.97,-0.77l44.18 0c0.58,0 0.96,-0.39 0.96,-0.97l0 -5.21c0,-0.58 -0.38,-0.77 -0.96,-0.77l-44.38 0c-0.57,0 -0.77,-0.39 -0.77,-0.96l0 -52.87c0,-0.58 0.2,-0.96 0.77,-0.96l56.34 0c0.58,0 0.96,-0.19 0.96,-0.77l0 -5.21c0,-0.58 -0.38,-0.97 -0.96,-0.97l-74.86 0c-0.57,0 -0.96,0.39 -0.96,0.97l0 133.12zm176.92 -101.29c0,36.08 -0.2,82.19 -0.2,101.29 0,0.58 0.39,0.96 0.97,0.96l16.98 0c0.57,0 0.77,-0.38 0.77,-0.96l0 -65.21c0,-0.58 0.19,-0.77 0.77,-0.77l2.89 0c17.37,22.57 29.52,36.65 40.91,49.58 5.59,6.75 10.03,11 13.11,13.89 9.84,8.68 13.9,8.49 19.68,8.49l13.31 0c0.58,0 0.97,-0.39 0.97,-0.97l0 -1.54c0,-0.58 -0.39,-0.77 -0.97,-0.77 -7.52,-0.58 -12.53,-3.47 -20.83,-14.08l-19.29 -25.67 -21.42 -27.58c-0.58,-0.58 -0.19,-1.35 0.58,-1.35 23.15,-0.58 49.97,-5.98 49.97,-34.15 0,-28.36 -29.13,-33.96 -51.71,-33.96l-45.72 0c-0.58,0 -0.77,0.39 -0.77,0.97l0 31.83zm18.52 -24.89c0,-0.58 0.38,-0.96 0.96,-0.96l23.54 0c23.73,0 35.69,9.07 35.69,27.01 0,17.75 -11.57,27.2 -35.69,27.2l-23.54 0c-0.58,0 -0.96,-0.38 -0.96,-0.96l0 -52.29z"/>
   </g>
  </g>
 </g>
</svg>
